<?xml version="1.0" encoding="utf-8"?>
<!-- Generator: Adobe Illustrator 18.1.1, SVG Export Plug-In . SVG Version: 6.00 Build 0)  -->
<!DOCTYPE svg PUBLIC "-//W3C//DTD SVG 1.1//EN" "http://www.w3.org/Graphics/SVG/1.1/DTD/svg11.dtd">
<svg version="1.1" xmlns="http://www.w3.org/2000/svg" xmlns:xlink="http://www.w3.org/1999/xlink" x="0px" y="0px"
	 viewBox="0 0 500 150" enable-background="new 0 0 500 150" xml:space="preserve">
<g id="Bitcoin" display="none">
	<g display="inline">
		<path fill="#F7931A" d="M101.9,86.9c-6.8,27.8-35,44.6-62.6,37.7c-27.8-6.8-44.6-35-37.7-62.6c6.8-27.8,35-44.6,62.6-37.7
			C92,31.1,108.9,59.2,101.9,86.9L101.9,86.9z"/>
		<path fill="#FFFFFF" d="M74.6,67c1-6.9-4.2-10.5-11.3-13.1l2.3-9.4l-5.7-1.3l-2.3,9.1c-1.4-0.3-3.1-0.6-4.5-1.1l2.3-9.2l-5.7-1.4
			l-2.3,9.4c-1.3-0.3-2.4-0.5-3.6-0.8l0,0l-7.8-1.9l-1.4,6.1c0,0,4.2,1,4.1,1c2.3,0.6,2.7,2.1,2.6,3.2l-2.6,10.6
			c0.1,0,0.3,0.1,0.6,0.1c-0.1,0-0.3-0.1-0.6-0.1L34.9,83c-0.3,0.6-1,1.8-2.6,1.3c0,0.1-4.2-1-4.2-1l-2.8,6.5l7.4,1.8
			c1.4,0.3,2.7,0.6,4.1,1l-2.4,9.4l5.7,1.4l2.3-9.4c1.6,0.5,3.1,0.8,4.5,1.1l-2.3,9.2l5.7,1.4l2.4-9.4c9.7,1.8,17,1.1,20.1-7.6
			c2.4-7.1-0.1-11.2-5.2-13.7C71,74.6,73.8,72.1,74.6,67L74.6,67z M61.6,85.3c-1.8,7.1-13.6,3.2-17.5,2.3l3.1-12.4
			C51.1,76.1,63.4,77.8,61.6,85.3L61.6,85.3z M63.4,67c-1.6,6.5-11.5,3.2-14.7,2.4l2.7-11.3C54.7,58.8,65,60.2,63.4,67z"/>
		<path fill="#FFFFFF" d="M155.2,54c4.2,0,7.8,0.8,10.9,2.3c3.1,1.4,5.7,3.6,7.6,6c1.9,2.6,3.6,5.5,4.5,8.9c1,3.4,1.4,7.1,1.4,11
			c0,6-1.1,11.8-3.4,17.2c-2.3,5.4-5.4,10-9.1,14.1c-3.9,4.1-8.4,7.1-13.6,9.4c-5.4,2.3-11,3.4-17.2,3.4c-0.8,0-2.1,0-4.2,0
			c-2.1,0-4.2-0.1-6.8-0.6c-2.6-0.3-5.2-0.8-8.1-1.6c-2.9-0.6-5.5-1.6-8.1-2.9L132,25.9l20.4-3.2l-8.1,33.8c1.8-0.8,3.6-1.4,5.2-1.8
			C151.3,54.2,153.1,54,155.2,54L155.2,54z M138.1,110c3.1,0,6-0.8,8.6-2.3c2.7-1.4,5-3.4,6.9-6c1.9-2.4,3.6-5.4,4.7-8.4
			s1.8-6.5,1.8-9.9c0-4.2-0.6-7.4-2.1-9.9c-1.4-2.4-4.1-3.6-7.8-3.6c-1.3,0-2.7,0.1-4.9,0.6c-1.9,0.5-3.7,1.3-5.4,2.7l-8.6,35.9
			c0.5,0.1,1,0.1,1.4,0.3c0.3,0.1,0.8,0.1,1.3,0.1c0.5,0,1,0,1.6,0S137.3,110,138.1,110L138.1,110z"/>
		<path fill="#FFFFFF" d="M200.7,124.4h-19.4l16.4-68.9h19.6L200.7,124.4z M210.1,47.1c-2.7,0-5.2-0.8-7.3-2.4
			c-2.3-1.6-3.2-4.1-3.2-7.4c0-1.8,0.3-3.6,1.1-5.2c0.8-1.6,1.8-3.1,2.9-4.2c1.3-1.1,2.6-2.1,4.2-2.7c1.6-0.6,3.4-1,5.2-1
			c2.7,0,5.2,0.8,7.3,2.4c2.1,1.6,3.2,4.1,3.2,7.4c0,1.8-0.3,3.6-1.1,5.2c-0.8,1.6-1.8,3.1-2.9,4.2c-1.3,1.1-2.6,2.1-4.2,2.7
			S211.8,47.1,210.1,47.1L210.1,47.1z"/>
		<path fill="#FFFFFF" d="M234.2,38.3l20.4-3.1l-5.2,20.2h21.7l-3.9,16h-21.7l-5.7,24c-0.5,1.9-0.8,3.9-1,5.7
			c-0.2,1.8,0.1,3.2,0.6,4.5c0.5,1.3,1.4,2.3,2.7,2.9s3.2,1.1,5.8,1.1c2.1,0,4.2-0.1,6.1-0.6c1.9-0.3,3.9-1,6-1.6l1.4,14.9
			c-2.6,1-5.5,1.8-8.6,2.4c-3.1,0.6-6.6,1-10.9,1c-6,0-10.7-1-14.1-2.7c-3.4-1.8-5.7-4.2-7.1-7.3c-1.4-3.1-1.9-6.6-1.8-10.7
			c0.1-4.1,0.8-8.2,1.8-12.8L234.2,38.3L234.2,38.3z"/>
		<path fill="#FFFFFF" d="M270.4,96.9c0-6,1-11.5,2.9-16.8c1.9-5.2,4.7-9.9,8.2-13.7c3.6-3.9,7.9-6.9,13.1-9.2
			c5-2.3,10.9-3.4,17.2-3.4c3.9,0,7.4,0.3,10.5,1.1c3.1,0.8,6,1.8,8.4,2.9L324.1,73c-1.8-0.6-3.6-1.3-5.5-1.9
			c-1.9-0.6-4.2-0.8-6.9-0.8c-6.5,0-11.7,2.3-15.4,6.6c-3.7,4.5-5.7,10.5-5.7,18c0,4.5,1,8.1,2.9,10.9c1.9,2.7,5.5,4.1,10.7,4.1
			c2.6,0,5-0.3,7.3-0.8c2.4-0.5,4.5-1.1,6.3-1.9l1.4,15.5c-2.4,1-5.2,1.8-8.1,2.6c-2.9,0.6-6.5,1.1-10.7,1.1c-5.4,0-10-0.8-13.7-2.4
			c-3.7-1.6-6.8-3.7-9.2-6.3c-2.4-2.7-4.2-5.8-5.4-9.4C270.9,104.5,270.4,100.8,270.4,96.9L270.4,96.9z"/>
		<path fill="#FFFFFF" d="M356.5,126.2c-4.7,0-8.6-0.6-12.2-2.1c-3.4-1.4-6.1-3.4-8.4-5.8c-2.3-2.6-3.9-5.5-5-8.9
			c-1.1-3.4-1.6-7.3-1.6-11.5c0-5.2,0.8-10.5,2.6-15.7c1.6-5.2,4.2-10,7.6-14.1c3.2-4.2,7.4-7.6,12.2-10.4
			c4.9-2.6,10.4-4.1,16.5-4.1c4.5,0,8.6,0.6,12,2.1c3.4,1.4,6.3,3.4,8.6,5.8c2.3,2.6,3.9,5.5,5,8.9c1.1,3.4,1.8,7.3,1.8,11.5
			c0,5.2-0.8,10.5-2.4,15.7c-1.6,5.2-4.1,9.9-7.3,14.1c-3.2,4.2-7.3,7.6-12.2,10.4C368.5,124.9,362.8,126.2,356.5,126.2L356.5,126.2
			z M366.2,70.1c-2.9,0-5.4,0.8-7.6,2.4c-2.3,1.6-4.1,3.7-5.5,6.3c-1.4,2.6-2.6,5.4-3.4,8.2c-0.8,3.1-1.1,5.8-1.1,8.6
			c0,4.4,0.6,7.8,2.1,10.2c1.4,2.4,3.9,3.7,7.6,3.7c2.9,0,5.4-0.8,7.6-2.4c2.1-1.6,4.1-3.7,5.5-6.3c1.4-2.6,2.6-5.4,3.4-8.2
			c0.8-3.1,1.1-5.8,1.1-8.6c0-4.4-0.6-7.8-2.1-10.2C372.4,71.4,369.9,70.1,366.2,70.1L366.2,70.1z"/>
		<path fill="#FFFFFF" d="M416.4,124.4h-19.4l16.4-68.9h19.6L416.4,124.4z M425.9,47.1c-2.7,0-5.2-0.8-7.3-2.4
			c-2.1-1.6-3.2-4.1-3.2-7.4c0-1.8,0.3-3.6,1.1-5.2c0.8-1.6,1.8-3.1,2.9-4.2c1.3-1.1,2.6-2.1,4.2-2.7c1.6-0.6,3.4-1,5.2-1
			c2.7,0,5.2,0.8,7.3,2.4c2.1,1.6,3.2,4.1,3.2,7.4c0,1.8-0.3,3.6-1.1,5.2c-0.8,1.6-1.8,3.1-2.9,4.2c-1.3,1.1-2.6,2.1-4.2,2.7
			C429.5,46.8,427.7,47.1,425.9,47.1z"/>
		<path fill="#FFFFFF" d="M447,58.6c1.4-0.5,3.1-1,4.9-1.4c1.8-0.4,3.7-1.1,6-1.6c2.3-0.5,4.7-0.8,7.4-1.1c2.7-0.3,5.8-0.5,9.4-0.5
			c10.2,0,17.3,2.9,21.2,8.9c3.9,6,4.5,14.1,2.1,24.4l-8.9,37.2h-19.6L478,88c0.5-2.3,1-4.5,1.3-6.6c0.3-2.1,0.3-4.1,0-5.7
			c-0.3-1.6-1.1-2.9-2.4-3.9c-1.3-1-3.2-1.4-5.8-1.4s-5.2,0.3-7.8,0.8l-12.8,53.4h-19.5L447,58.6z"/>
	</g>
</g>
<g id="Bitcoin_Grayscale" display="none">
	<g display="inline">
		<path opacity="0.75" fill="#A4A4A4" d="M102.2,86.8c-6.8,27.8-35,44.6-62.6,37.7C11.8,117.7-5,89.6,1.9,61.9
			c6.8-27.8,35-44.6,62.6-37.7C92.4,31,109.2,59.2,102.2,86.8L102.2,86.8z"/>
		<path opacity="0.75" fill="#FFFFFF" d="M74.9,67c1-6.9-4.2-10.5-11.3-13.1l2.3-9.4l-5.7-1.3l-2.3,9.1c-1.4-0.3-3.1-0.6-4.5-1.1
			l2.3-9.2l-5.7-1.4l-2.3,9.4c-1.3-0.3-2.4-0.5-3.6-0.8l0,0l-7.8-1.9L35,53.3c0,0,4.2,1,4.1,1c2.3,0.6,2.7,2.1,2.6,3.2L39,68.1
			c0.1,0,0.3,0.1,0.6,0.1c-0.1,0-0.3-0.1-0.6-0.1L35.3,83c-0.3,0.6-1,1.8-2.6,1.3c0,0.1-4.2-1-4.2-1l-2.8,6.5l7.4,1.8
			c1.4,0.3,2.7,0.6,4.1,1l-2.4,9.4l5.7,1.4l2.3-9.4c1.6,0.5,3.1,0.8,4.5,1.1l-2.3,9.2l5.7,1.4l2.4-9.4c9.7,1.8,17,1.1,20.1-7.6
			c2.4-7.1-0.1-11.2-5.2-13.7C71.3,74.5,74.1,72.1,74.9,67L74.9,67z M62,85.3c-1.8,7.1-13.6,3.2-17.5,2.3l3.1-12.4
			C51.4,76,63.7,77.8,62,85.3L62,85.3z M63.7,67c-1.6,6.5-11.5,3.2-14.7,2.4l2.7-11.3C55,58.7,65.4,60.2,63.7,67z"/>
		<path opacity="0.75" fill="#FFFFFF" d="M155.5,54c4.2,0,7.8,0.8,10.9,2.3c3.1,1.4,5.7,3.6,7.6,6c1.9,2.6,3.6,5.5,4.5,8.9
			c1,3.4,1.4,7.1,1.4,11c0,6-1.1,11.8-3.4,17.2c-2.3,5.4-5.4,10-9.1,14.1c-3.9,4.1-8.4,7.1-13.6,9.4c-5.4,2.3-11,3.4-17.2,3.4
			c-0.8,0-2.1,0-4.2,0c-2.1,0-4.2-0.1-6.8-0.6c-2.6-0.3-5.2-0.8-8.1-1.6c-2.9-0.6-5.5-1.6-8.1-2.9l22.8-95.1l20.4-3.2l-8.1,33.8
			c1.8-0.8,3.6-1.4,5.2-1.8C151.7,54.2,153.5,54,155.5,54L155.5,54z M138.4,110c3.1,0,6-0.8,8.6-2.3c2.7-1.4,5-3.4,6.9-6
			c1.9-2.4,3.6-5.4,4.7-8.4c1.1-3.1,1.8-6.5,1.8-9.9c0-4.2-0.6-7.4-2.1-9.9c-1.4-2.4-4.1-3.6-7.8-3.6c-1.3,0-2.7,0.1-4.9,0.6
			c-1.9,0.5-3.7,1.3-5.4,2.7l-8.6,35.9c0.5,0.1,1,0.1,1.4,0.3c0.3,0.1,0.8,0.1,1.3,0.1c0.5,0,1,0,1.6,0
			C136.8,109.7,137.6,110,138.4,110L138.4,110z"/>
		<path opacity="0.75" fill="#FFFFFF" d="M201,124.4h-19.4l16.4-68.9h19.6L201,124.4z M210.4,47.1c-2.7,0-5.2-0.8-7.3-2.4
			c-2.3-1.6-3.2-4.1-3.2-7.4c0-1.8,0.3-3.6,1.1-5.2c0.8-1.6,1.8-3.1,2.9-4.2c1.3-1.1,2.6-2.1,4.2-2.7c1.6-0.6,3.4-1,5.2-1
			c2.7,0,5.2,0.8,7.3,2.4c2.1,1.6,3.2,4.1,3.2,7.4c0,1.8-0.3,3.6-1.1,5.2c-0.8,1.6-1.8,3.1-2.9,4.2c-1.3,1.1-2.6,2.1-4.2,2.7
			C213.9,46.7,212.2,47.1,210.4,47.1L210.4,47.1z"/>
		<path opacity="0.75" fill="#FFFFFF" d="M234.5,38.3l20.4-3.1l-5.2,20.2h21.7l-3.9,16h-21.7l-5.7,24c-0.5,1.9-0.8,3.9-1,5.7
			c-0.2,1.8,0.1,3.2,0.6,4.5c0.5,1.3,1.4,2.3,2.7,2.9c1.3,0.6,3.2,1.1,5.8,1.1c2.1,0,4.2-0.1,6.1-0.6c1.9-0.3,3.9-1,6-1.6l1.4,14.9
			c-2.6,1-5.5,1.8-8.6,2.4s-6.6,1-10.9,1c-6,0-10.7-1-14.1-2.7c-3.4-1.8-5.7-4.2-7.1-7.3c-1.4-3.1-1.9-6.6-1.8-10.7
			c0.1-4.1,0.8-8.2,1.8-12.8L234.5,38.3L234.5,38.3z"/>
		<path opacity="0.75" fill="#FFFFFF" d="M270.7,96.9c0-6,1-11.5,2.9-16.8c1.9-5.2,4.7-9.9,8.2-13.7c3.6-3.9,7.9-6.9,13.1-9.2
			c5-2.3,10.9-3.4,17.2-3.4c3.9,0,7.4,0.3,10.5,1.1c3.1,0.8,6,1.8,8.4,2.9L324.5,73c-1.8-0.6-3.6-1.3-5.5-1.9s-4.2-0.8-6.9-0.8
			c-6.5,0-11.7,2.3-15.4,6.6c-3.7,4.5-5.7,10.5-5.7,18c0,4.5,1,8.1,2.9,10.9c1.9,2.7,5.5,4.1,10.7,4.1c2.6,0,5-0.3,7.3-0.8
			c2.4-0.5,4.5-1.1,6.3-1.9l1.4,15.5c-2.4,1-5.2,1.8-8.1,2.6c-2.9,0.6-6.5,1.1-10.7,1.1c-5.4,0-10-0.8-13.7-2.4
			c-3.7-1.6-6.8-3.7-9.2-6.3c-2.4-2.7-4.2-5.8-5.4-9.4C271.2,104.5,270.7,100.8,270.7,96.9L270.7,96.9z"/>
		<path opacity="0.75" fill="#FFFFFF" d="M356.8,126.2c-4.7,0-8.6-0.6-12.2-2.1c-3.4-1.4-6.1-3.4-8.4-5.8c-2.3-2.6-3.9-5.5-5-8.9
			c-1.1-3.4-1.6-7.3-1.6-11.5c0-5.2,0.8-10.5,2.6-15.7c1.6-5.2,4.2-10,7.6-14.1c3.2-4.2,7.4-7.6,12.2-10.4
			c4.9-2.6,10.4-4.1,16.5-4.1c4.5,0,8.6,0.6,12,2.1c3.4,1.4,6.3,3.4,8.6,5.8c2.3,2.6,3.9,5.5,5,8.9c1.1,3.4,1.8,7.3,1.8,11.5
			c0,5.2-0.8,10.5-2.4,15.7c-1.6,5.2-4.1,9.9-7.3,14.1c-3.2,4.2-7.3,7.6-12.2,10.4C368.8,124.9,363.1,126.2,356.8,126.2L356.8,126.2
			z M366.6,70c-2.9,0-5.4,0.8-7.6,2.4c-2.3,1.6-4.1,3.7-5.5,6.3c-1.4,2.6-2.6,5.4-3.4,8.2c-0.8,3.1-1.1,5.8-1.1,8.6
			c0,4.4,0.6,7.8,2.1,10.2c1.4,2.4,3.9,3.7,7.6,3.7c2.9,0,5.4-0.8,7.6-2.4c2.1-1.6,4.1-3.7,5.5-6.3c1.4-2.6,2.6-5.4,3.4-8.2
			c0.8-3.1,1.1-5.8,1.1-8.6c0-4.4-0.6-7.8-2.1-10.2C372.7,71.3,370.3,70,366.6,70L366.6,70z"/>
		<path opacity="0.75" fill="#FFFFFF" d="M416.7,124.4h-19.4l16.4-68.9h19.6L416.7,124.4z M426.3,47.1c-2.7,0-5.2-0.8-7.3-2.4
			c-2.1-1.6-3.2-4.1-3.2-7.4c0-1.8,0.3-3.6,1.1-5.2c0.8-1.6,1.8-3.1,2.9-4.2c1.3-1.1,2.6-2.1,4.2-2.7c1.6-0.6,3.4-1,5.2-1
			c2.7,0,5.2,0.8,7.3,2.4c2.1,1.6,3.2,4.1,3.2,7.4c0,1.8-0.3,3.6-1.1,5.2c-0.8,1.6-1.8,3.1-2.9,4.2c-1.3,1.1-2.6,2.1-4.2,2.7
			C429.8,46.7,428.1,47.1,426.3,47.1z"/>
		<path opacity="0.75" fill="#FFFFFF" d="M447.3,58.5c1.4-0.5,3.1-1,4.9-1.4c1.8-0.4,3.7-1.1,6-1.6c2.3-0.5,4.7-0.8,7.4-1.1
			c2.7-0.3,5.8-0.5,9.4-0.5c10.2,0,17.3,2.9,21.2,8.9c3.9,6,4.5,14.1,2.1,24.4l-8.9,37.2h-19.6l8.6-36.4c0.5-2.3,1-4.5,1.3-6.6
			c0.3-2.1,0.3-4.1,0-5.7c-0.3-1.6-1.1-2.9-2.4-3.9c-1.3-1-3.2-1.4-5.8-1.4s-5.2,0.3-7.8,0.8l-12.8,53.4h-19.5L447.3,58.5z"/>
	</g>
</g>
<g id="Ethereum" display="none">
	<g display="inline">
		<polygon fill="#63698B" points="50.6,23 81.7,75.4 50.6,94.4 		"/>
		<polygon fill="#63698B" points="81.7,81.7 50.6,126.2 50.6,100.1 		"/>
		<polygon fill="#8890AF" points="50.6,23 19.3,75.4 50.6,94.4 		"/>
		<polygon fill="#8890AF" points="19.3,81.7 50.6,126.2 50.6,100.1 		"/>
		<polygon fill="#63698B" points="50.6,94.4 19.3,75.4 50.6,61.7 		"/>
		<polygon fill="#484D74" points="50.6,94.4 81.7,75.4 50.6,61.7 		"/>
	</g>
	
		<path display="inline" opacity="0.8" fill="#FCFCFC" stroke="#FFFFFF" stroke-width="4" stroke-miterlimit="10" enable-background="new    " d="
		M115,67.3c5.2,0,9.6,2,13.1,5.9c3.6,4,5.2,8.5,5.2,13.9c0,1-0.6,1.6-1.7,1.6H99.9c0.3,4,2,7.5,4.7,10.3c2.8,3,6.2,4.4,10.2,4.4
		c5.5,0,9.9-2.2,13-6.6c0.3-0.5,0.8-0.8,1.4-0.8c1,0,1.6,0.6,1.6,1.6c0,0.3-0.1,0.6-0.2,0.8c-3.1,5.5-8.5,8.3-15.7,8.3
		c-5.2,0-9.4-2-12.9-5.9c-3.6-3.9-5.2-8.5-5.2-13.8c0-5.3,1.7-9.9,5.2-13.8C105.3,69.3,109.7,67.3,115,67.3z M99.9,85.5h30
		c-0.3-4.1-2-7.5-4.7-10.5c-2.9-3-6.2-4.4-10.2-4.4c-4.1,0-7.4,1.4-10.2,4.4C101.9,78,100.3,81.4,99.9,85.5z"/>
	
		<path display="inline" opacity="0.8" fill="#FCFCFC" stroke="#FFFFFF" stroke-width="4" stroke-miterlimit="10" enable-background="new    " d="
		M157.5,68.3h8.5c1,0,1.6,0.6,1.6,1.6c0,1.1-0.6,1.6-1.6,1.6h-8.5v33.1c0,1-0.6,1.6-1.6,1.6c-1,0-1.6-0.6-1.6-1.6v-33h-8.2
		c-1,0-1.6-0.6-1.6-1.6c0-1.1,0.6-1.6,1.6-1.6h8.2V56c0-1,0.6-1.6,1.6-1.6c1,0,1.6,0.6,1.6,1.6C157.5,56,157.5,68.3,157.5,68.3z"/>
	
		<path display="inline" opacity="0.8" fill="#FCFCFC" stroke="#FFFFFF" stroke-width="4" stroke-miterlimit="10" enable-background="new    " d="
		M197.4,67.6c4.5,0,8,1.7,10.7,5.2c2.5,3.1,3.9,7,3.9,11.6v20.1c0,1-0.6,1.6-1.6,1.6c-1,0-1.6-0.6-1.6-1.6v-20c0-3.7-0.9-6.8-3-9.2
		c-2.1-2.9-4.9-4.3-8.5-4.3c-4.6,0-8,1.8-10.5,5.3c-2.2,3.2-3.1,7.2-2.9,11.8c0,0.9,0,1.4,0,1.4v15.1c0,1-0.6,1.6-1.6,1.6
		c-1,0-1.6-0.6-1.6-1.6V38.4c0-1,0.6-1.6,1.6-1.6c1,0,1.6,0.6,1.6,1.6v37.5C187.3,70.2,191.6,67.6,197.4,67.6z"/>
	
		<path display="inline" opacity="0.8" fill="#FCFCFC" stroke="#FFFFFF" stroke-width="4" stroke-miterlimit="10" enable-background="new    " d="
		M244.7,67.3c5.2,0,9.6,2,13.1,5.9c3.6,4,5.2,8.5,5.2,13.9c0,1-0.6,1.6-1.7,1.6h-31.6c0.3,4,2,7.5,4.7,10.3c2.8,3,6.2,4.4,10.2,4.4
		c5.5,0,9.9-2.2,13-6.6c0.3-0.5,0.8-0.8,1.4-0.8c1,0,1.6,0.6,1.6,1.6c0,0.3-0.1,0.6-0.2,0.8c-3.1,5.5-8.5,8.3-15.7,8.3
		c-5.2,0-9.4-2-12.9-5.9c-3.6-3.9-5.2-8.5-5.2-13.8c0-5.3,1.7-9.9,5.2-13.8C235.2,69.3,239.6,67.3,244.7,67.3z M229.7,85.5h30
		c-0.3-4.1-2-7.5-4.7-10.5c-2.9-3-6.2-4.4-10.2-4.4c-4.1,0-7.4,1.4-10.2,4.4C231.7,78,230.1,81.4,229.7,85.5z"/>
	
		<path display="inline" opacity="0.8" fill="#FCFCFC" stroke="#FFFFFF" stroke-width="4" stroke-miterlimit="10" enable-background="new    " d="
		M294.5,68.3c1.1,0,1.7,0.5,1.7,1.4s-0.5,1.5-1.4,1.7c-4.5,0.6-7.9,2.6-10.1,6.1c-2.2,3-3.3,6.9-3.3,11.6v15.1c0,1-0.6,1.6-1.6,1.6
		c-1,0-1.6-0.6-1.6-1.6V69.8c0-1,0.6-1.6,1.6-1.6c1,0,1.6,0.5,1.6,1.5v6.9c1.4-2.4,3.3-4.4,5.5-5.9C289.4,69.2,292,68.3,294.5,68.3z
		"/>
	
		<path display="inline" opacity="0.8" fill="#FCFCFC" stroke="#FFFFFF" stroke-width="4" stroke-miterlimit="10" enable-background="new    " d="
		M324.3,67.3c5.2,0,9.6,2,13.1,5.9c3.6,4,5.2,8.5,5.2,13.9c0,1-0.6,1.6-1.7,1.6h-31.6c0.3,4,2,7.5,4.7,10.3c2.8,3,6.2,4.4,10.2,4.4
		c5.5,0,9.9-2.2,13-6.6c0.3-0.5,0.8-0.8,1.4-0.8c1,0,1.6,0.6,1.6,1.6c0,0.3-0.1,0.6-0.2,0.8c-3.1,5.5-8.5,8.3-15.7,8.3
		c-5.2,0-9.4-2-12.9-5.9c-3.6-3.9-5.2-8.5-5.2-13.8c0-5.3,1.7-9.9,5.2-13.8C314.7,69.3,319.1,67.3,324.3,67.3z M309.2,85.5h30
		c-0.3-4.1-2-7.5-4.7-10.5c-2.9-3-6.2-4.4-10.2-4.4c-4,0-7.4,1.4-10.2,4.4C311.1,78,309.5,81.4,309.2,85.5z"/>
	
		<path display="inline" opacity="0.8" fill="#FCFCFC" stroke="#FFFFFF" stroke-width="4" stroke-miterlimit="10" enable-background="new    " d="
		M386.5,68.3c1,0,1.6,0.6,1.6,1.6v34.8c0,1-0.6,1.6-1.6,1.6s-1.6-0.6-1.6-1.6v-6.6c-3,6-7.4,9-13.1,9c-4.5,0-8-1.7-10.7-5.2
		c-2.5-3.1-3.8-7-3.8-11.6V69.9c0-1,0.6-1.6,1.6-1.6s1.6,0.6,1.6,1.6v20.2c0,3.7,0.9,6.8,2.9,9.3c2.1,2.9,4.9,4.3,8.6,4.3
		c8.7,0,13.1-6.9,13.1-20.9V69.9C384.9,68.8,385.5,68.3,386.5,68.3z"/>
	
		<path display="inline" opacity="0.8" fill="#FCFCFC" stroke="#FFFFFF" stroke-width="4" stroke-miterlimit="10" enable-background="new    " d="
		M447.7,67.6c4.5,0,8,1.6,10.7,4.9c2.6,3.3,4,7.2,4,11.7v20.2c0,1-0.6,1.6-1.6,1.6c-1,0-1.6-0.6-1.6-1.6V84.1c0-3.7-0.9-6.8-3-9.2
		c-2-2.8-4.8-4.1-8.5-4.1c-4.4,0-7.8,2-10.1,6c-2,3.4-3,7.4-3,12.1v15.6c0,1-0.6,1.6-1.6,1.6s-1.6-0.6-1.6-1.6V84.2
		c0-3.7-0.9-6.8-3-9.2c-2.1-2.8-4.9-4.1-8.5-4.1c-4.6,0-8,1.6-10.5,4.9c-2,3-3,7.4-2.9,12.6v0.8v15.2c0,1-0.6,1.6-1.6,1.6
		s-1.6-0.6-1.6-1.6V69.8c0-1,0.6-1.6,1.6-1.6c1,0,1.6,0.5,1.6,1.5v5.7c3-5.3,7.4-8,13.2-8c6.8,0,11.2,3.3,13.5,10.1
		C436.4,70.9,441.1,67.6,447.7,67.6z"/>
</g>
<g id="Ethereum_Grayscale">
	<g opacity="0.75">
		<polygon fill="#6B6B6B" points="50,23.4 81.2,75.8 50,94.8 		"/>
		<polygon fill="#6B6B6B" points="81.2,82.1 50,126.6 50,100.5 		"/>
		<polygon fill="#919191" points="50,23.4 18.8,75.8 50,94.8 		"/>
		<polygon fill="#919191" points="18.8,82.1 50,126.6 50,100.5 		"/>
		<polygon fill="#6B6B6B" points="50,94.8 18.8,75.8 50,62.1 		"/>
		<polygon fill="#505050" points="50,94.8 81.2,75.8 50,62.1 		"/>
	</g>
	<path opacity="0.5" fill="#FCFCFC" stroke="#FFFFFF" stroke-width="4" stroke-miterlimit="10" enable-background="new    " d="
		M114.4,67.7c5.2,0,9.6,2,13.1,5.9c3.6,4,5.2,8.5,5.2,13.9c0,1-0.6,1.6-1.7,1.6H99.4c0.3,4,2,7.5,4.7,10.3c2.8,3,6.2,4.4,10.2,4.4
		c5.5,0,9.9-2.2,13-6.6c0.3-0.5,0.8-0.8,1.4-0.8c1,0,1.6,0.6,1.6,1.6c0,0.3-0.1,0.6-0.2,0.8c-3.1,5.5-8.5,8.3-15.7,8.3
		c-5.2,0-9.4-2-12.9-5.9c-3.6-3.9-5.2-8.5-5.2-13.8c0-5.3,1.7-9.9,5.2-13.8C104.8,69.7,109.2,67.7,114.4,67.7z M99.4,85.9h30
		c-0.3-4.1-2-7.5-4.7-10.5c-2.9-3-6.2-4.4-10.2-4.4c-4.1,0-7.4,1.4-10.2,4.4C101.4,78.3,99.8,81.8,99.4,85.9z"/>
	<path opacity="0.5" fill="#FCFCFC" stroke="#FFFFFF" stroke-width="4" stroke-miterlimit="10" enable-background="new    " d="
		M157,68.7h8.5c1,0,1.6,0.6,1.6,1.6c0,1.1-0.6,1.6-1.6,1.6H157V105c0,1-0.6,1.6-1.6,1.6c-1,0-1.6-0.6-1.6-1.6V72h-8.2
		c-1,0-1.6-0.6-1.6-1.6c0-1.1,0.6-1.6,1.6-1.6h8.2V56.4c0-1,0.6-1.6,1.6-1.6c1,0,1.6,0.6,1.6,1.6C157,56.4,157,68.7,157,68.7z"/>
	<path opacity="0.5" fill="#FCFCFC" stroke="#FFFFFF" stroke-width="4" stroke-miterlimit="10" enable-background="new    " d="
		M196.9,67.9c4.5,0,8,1.7,10.7,5.2c2.5,3.1,3.9,7,3.9,11.6v20.1c0,1-0.6,1.6-1.6,1.6c-1,0-1.6-0.6-1.6-1.6v-20c0-3.7-0.9-6.8-3-9.2
		c-2.1-2.9-4.9-4.3-8.5-4.3c-4.6,0-8,1.8-10.5,5.3c-2.2,3.2-3.1,7.2-2.9,11.8c0,0.9,0,1.4,0,1.4V105c0,1-0.6,1.6-1.6,1.6
		c-1,0-1.6-0.6-1.6-1.6V38.8c0-1,0.6-1.6,1.6-1.6c1,0,1.6,0.6,1.6,1.6v37.5C186.8,70.6,191.1,67.9,196.9,67.9z"/>
	<path opacity="0.5" fill="#FCFCFC" stroke="#FFFFFF" stroke-width="4" stroke-miterlimit="10" enable-background="new    " d="
		M244.2,67.7c5.2,0,9.6,2,13.1,5.9c3.6,4,5.2,8.5,5.2,13.9c0,1-0.6,1.6-1.7,1.6h-31.6c0.3,4,2,7.5,4.7,10.3c2.8,3,6.2,4.4,10.2,4.4
		c5.5,0,9.9-2.2,13-6.6c0.3-0.5,0.8-0.8,1.4-0.8c1,0,1.6,0.6,1.6,1.6c0,0.3-0.1,0.6-0.2,0.8c-3.1,5.5-8.5,8.3-15.7,8.3
		c-5.2,0-9.4-2-12.9-5.9c-3.6-3.9-5.2-8.5-5.2-13.8c0-5.3,1.7-9.9,5.2-13.8C234.7,69.7,239.1,67.7,244.2,67.7z M229.2,85.9h30
		c-0.3-4.1-2-7.5-4.7-10.5c-2.9-3-6.2-4.4-10.2-4.4c-4.1,0-7.4,1.4-10.2,4.4C231.2,78.3,229.6,81.8,229.2,85.9z"/>
	<path opacity="0.5" fill="#FCFCFC" stroke="#FFFFFF" stroke-width="4" stroke-miterlimit="10" enable-background="new    " d="
		M294,68.7c1.1,0,1.7,0.5,1.7,1.4s-0.5,1.5-1.4,1.7c-4.5,0.6-7.9,2.6-10.1,6.1c-2.2,3-3.3,6.9-3.3,11.6v15.1c0,1-0.6,1.6-1.6,1.6
		c-1,0-1.6-0.6-1.6-1.6V70.2c0-1,0.6-1.6,1.6-1.6c1,0,1.6,0.5,1.6,1.5v6.9c1.4-2.4,3.3-4.4,5.5-5.9C288.9,69.5,291.5,68.7,294,68.7z
		"/>
	<path opacity="0.5" fill="#FCFCFC" stroke="#FFFFFF" stroke-width="4" stroke-miterlimit="10" enable-background="new    " d="
		M323.8,67.7c5.2,0,9.6,2,13.1,5.9c3.6,4,5.2,8.5,5.2,13.9c0,1-0.6,1.6-1.7,1.6h-31.6c0.3,4,2,7.5,4.7,10.3c2.8,3,6.2,4.4,10.2,4.4
		c5.5,0,9.9-2.2,13-6.6c0.3-0.5,0.8-0.8,1.4-0.8c1,0,1.6,0.6,1.6,1.6c0,0.3-0.1,0.6-0.2,0.8c-3.1,5.5-8.5,8.3-15.7,8.3
		c-5.2,0-9.4-2-12.9-5.9c-3.6-3.9-5.2-8.5-5.2-13.8c0-5.3,1.7-9.9,5.2-13.8C314.1,69.7,318.5,67.7,323.8,67.7z M308.6,85.9h30
		c-0.3-4.1-2-7.5-4.7-10.5c-2.9-3-6.2-4.4-10.2-4.4c-4,0-7.4,1.4-10.2,4.4C310.6,78.3,309,81.8,308.6,85.9z"/>
	<path opacity="0.5" fill="#FCFCFC" stroke="#FFFFFF" stroke-width="4" stroke-miterlimit="10" enable-background="new    " d="
		M386,68.7c1,0,1.6,0.6,1.6,1.6v34.8c0,1-0.6,1.6-1.6,1.6s-1.6-0.6-1.6-1.6v-6.6c-3,6-7.4,9-13.1,9c-4.5,0-8-1.7-10.7-5.2
		c-2.5-3.1-3.8-7-3.8-11.6V70.3c0-1,0.6-1.6,1.6-1.6s1.6,0.6,1.6,1.6v20.2c0,3.7,0.9,6.8,2.9,9.3c2.1,2.9,4.9,4.3,8.6,4.3
		c8.7,0,13.1-6.9,13.1-20.9V70.3C384.3,69.2,384.9,68.7,386,68.7z"/>
	<path opacity="0.5" fill="#FCFCFC" stroke="#FFFFFF" stroke-width="4" stroke-miterlimit="10" enable-background="new    " d="
		M447.2,67.9c4.5,0,8,1.6,10.7,4.9c2.6,3.3,4,7.2,4,11.7v20.2c0,1-0.6,1.6-1.6,1.6c-1,0-1.6-0.6-1.6-1.6V84.5c0-3.7-0.9-6.8-3-9.2
		c-2-2.8-4.8-4.1-8.5-4.1c-4.4,0-7.8,2-10.1,6c-2,3.4-3,7.4-3,12.1v15.6c0,1-0.6,1.6-1.6,1.6s-1.6-0.6-1.6-1.6V84.6
		c0-3.7-0.9-6.8-3-9.2c-2.1-2.8-4.9-4.1-8.5-4.1c-4.6,0-8,1.6-10.5,4.9c-2,3-3,7.4-2.9,12.6v0.8v15.2c0,1-0.6,1.6-1.6,1.6
		s-1.6-0.6-1.6-1.6V70.2c0-1,0.6-1.6,1.6-1.6c1,0,1.6,0.5,1.6,1.5v5.7c3-5.3,7.4-8,13.2-8c6.8,0,11.2,3.3,13.5,10.1
		C435.9,71.2,440.6,67.9,447.2,67.9z"/>
</g>
</svg>
